<svg width="948" height="548" viewBox="0 0 948 548" fill="none" xmlns="http://www.w3.org/2000/svg">
<g clip-path="url(#clip0_7_77)">
<mask id="mask0_7_77" style="mask-type:luminance" maskUnits="userSpaceOnUse" x="0" y="0" width="948" height="548">
<path d="M948 0H0V548H948V0Z" fill="white"/>
</mask>
<g mask="url(#mask0_7_77)">
<path d="M384.625 456.129V498.896H467.75V536.241H556.295V453.117" stroke="#B8BDFF" stroke-width="2" stroke-dasharray="10 10"/>
<path d="M287.264 165.9H719.367C724.54 165.9 729.501 167.955 733.159 171.614C736.817 175.272 738.872 180.233 738.872 185.406V429.74H267.758V185.406C267.758 180.233 269.813 175.272 273.471 171.614C277.129 167.955 282.091 165.9 287.264 165.9Z" fill="#7B85FC"/>
<path d="M267.758 429.741H738.872V453.044C738.872 457.712 736.826 462.189 733.182 465.49C729.538 468.791 724.596 470.645 719.443 470.645H287.172C282.021 470.641 277.083 468.786 273.443 465.485C269.803 462.185 267.758 457.709 267.758 453.044V429.741Z" fill="#969EFF"/>
<path d="M721.513 181.129H285.148V413.403H721.513V181.129Z" fill="white"/>
<path d="M512.523 450.523C512.523 452.349 511.981 454.133 510.967 455.651C509.953 457.169 508.511 458.352 506.825 459.05C505.138 459.749 503.282 459.932 501.492 459.576C499.701 459.219 498.057 458.34 496.766 457.05C495.475 455.759 494.596 454.114 494.24 452.324C493.884 450.533 494.066 448.677 494.765 446.991C495.464 445.304 496.647 443.863 498.165 442.848C499.682 441.834 501.467 441.293 503.293 441.293C505.74 441.293 508.088 442.265 509.819 443.996C511.55 445.727 512.523 448.075 512.523 450.523Z" fill="#7B85FC"/>
<path d="M566.671 308.533L582.285 306.694L581.14 296.978C584.543 295.766 587.726 294.01 590.564 291.777L598.301 297.883L608.047 285.551L600.364 279.501C601.907 276.231 602.912 272.735 603.342 269.145L613.15 267.989L611.312 252.39L601.641 253.53C600.42 250.127 598.664 246.941 596.44 244.089L602.546 236.354L590.2 226.625L584.148 234.292C580.883 232.752 577.391 231.745 573.807 231.313L572.653 221.519L557.039 223.359L558.182 233.061C554.778 234.284 551.591 236.046 548.743 238.277L541.006 232.156L531.277 244.502L538.959 250.552C537.39 253.82 536.358 257.321 535.906 260.918L526.113 262.071L527.951 277.67L537.744 276.517C538.96 279.922 540.716 283.109 542.945 285.957L536.839 293.692L549.17 303.424L555.237 295.754C558.502 297.293 561.994 298.298 565.578 298.734L566.671 308.533ZM554.629 266.797C554.279 263.831 554.817 260.826 556.175 258.165C557.533 255.504 559.649 253.304 562.257 251.846C564.865 250.388 567.846 249.735 570.824 249.971C573.803 250.207 576.645 251.321 578.99 253.172C581.335 255.023 583.08 257.528 584.001 260.37C584.922 263.212 584.981 266.263 584.168 269.138C583.355 272.014 581.709 274.583 579.436 276.523C577.163 278.462 574.366 279.684 571.398 280.033C567.42 280.502 563.418 279.37 560.273 276.888C557.127 274.406 555.098 270.777 554.629 266.797Z" fill="#7B85FC"/>
<path d="M647.747 282.156L635.525 280.716L634.625 288.355C631.794 288.663 629.032 289.426 626.444 290.613L621.647 284.518L611.93 292.187L616.702 298.233C614.915 300.447 613.502 302.939 612.518 305.608L604.68 304.685L603.24 316.907L610.879 317.807C611.185 320.633 611.948 323.392 613.14 325.973L607.043 330.784L614.711 340.501L620.756 335.731C622.979 337.507 625.467 338.919 628.132 339.915L627.232 347.553L639.455 348.993L640.355 341.355C643.208 341.104 646.001 340.392 648.626 339.247L653.423 345.341L663.14 337.672L658.369 331.627C660.151 329.41 661.564 326.919 662.552 324.251L670.191 325.151L671.631 312.929L663.992 312.029C663.684 309.198 662.922 306.436 661.735 303.847L667.832 299.036L660.16 289.335L654.116 294.105C651.899 292.32 649.408 290.907 646.739 289.921L647.747 282.156ZM649.329 316.327C649.053 318.662 648.092 320.864 646.565 322.654C645.039 324.442 643.016 325.739 640.753 326.378C638.489 327.018 636.087 326.972 633.851 326.247C631.613 325.521 629.641 324.149 628.184 322.303C626.727 320.457 625.851 318.22 625.665 315.875C625.479 313.53 625.993 311.183 627.141 309.131C628.289 307.078 630.02 305.413 632.115 304.343C634.21 303.274 636.575 302.851 638.911 303.126C642.042 303.495 644.9 305.093 646.853 307.569C648.807 310.044 649.698 313.194 649.329 316.327Z" fill="#7B85FC"/>
<path d="M577.814 369.673L586.521 368.647L585.881 363.208C587.784 362.527 589.566 361.548 591.162 360.309L595.482 363.719L600.874 356.887L596.586 353.49C597.45 351.667 598.015 349.718 598.26 347.716L603.729 347.072L602.696 338.303L597.273 338.941C596.591 337.041 595.607 335.264 594.36 333.677L597.77 329.356L590.939 323.966L587.558 328.267C585.733 327.396 583.777 326.831 581.769 326.595L581.124 321.125L572.416 322.151L573.052 327.544C571.146 328.224 569.363 329.208 567.773 330.459L563.45 327.033L558.058 333.865L562.346 337.247C561.484 339.071 560.919 341.02 560.671 343.021L555.201 343.665L556.229 352.389L561.607 351.755C562.283 353.657 563.267 355.435 564.52 357.02L561.112 361.355L567.942 366.746L571.325 362.46C573.168 363.357 575.141 363.957 577.173 364.234L577.814 369.673ZM571.086 346.363C570.891 344.704 571.192 343.024 571.952 341.535C572.711 340.047 573.896 338.818 575.354 338.002C576.813 337.187 578.481 336.824 580.147 336.957C581.813 337.09 583.401 337.714 584.712 338.751C586.022 339.787 586.997 341.189 587.511 342.779C588.024 344.369 588.054 346.076 587.598 347.683C587.141 349.291 586.218 350.727 584.946 351.809C583.672 352.892 582.106 353.572 580.446 353.764C579.346 353.894 578.231 353.805 577.164 353.503C576.098 353.202 575.101 352.692 574.232 352.005C573.362 351.317 572.637 350.465 572.098 349.497C571.558 348.529 571.214 347.464 571.086 346.363Z" fill="#7B85FC"/>
<path d="M508.452 207.635H353.941V387.989H508.452V207.635Z" fill="#AFB6FF"/>
<path d="M486.118 232.232H376.266V242.078H486.118V232.232Z" fill="white"/>
<path d="M486.118 252.232H376.266V262.078H486.118V252.232Z" fill="white"/>
<path d="M486.118 272.232H376.266V282.078H486.118V272.232Z" fill="white"/>
<path d="M486.118 292.232H376.266V302.078H486.118V292.232Z" fill="white"/>
<path d="M486.118 312.232H376.266V322.078H486.118V312.232Z" fill="white"/>
<path d="M486.118 332.232H376.266V342.078H486.118V332.232Z" fill="white"/>
<path d="M486.118 352.232H376.266V362.078H486.118V352.232Z" fill="white"/>
<path d="M320.917 320.539H120.473V372.233H320.917V320.539Z" fill="#AFB6FF"/>
<path d="M169.112 346.316C169.112 349.806 168.077 353.219 166.137 356.121C164.198 359.024 161.442 361.286 158.216 362.622C154.991 363.958 151.443 364.307 148.019 363.626C144.595 362.945 141.45 361.264 138.982 358.796C136.514 356.328 134.832 353.183 134.151 349.759C133.47 346.335 133.82 342.787 135.156 339.561C136.492 336.336 138.754 333.58 141.657 331.64C144.559 329.701 147.971 328.666 151.462 328.666C156.143 328.666 160.633 330.525 163.942 333.835C167.252 337.145 169.112 341.635 169.112 346.316Z" fill="white"/>
<path d="M155.68 339.797C155.675 340.628 155.425 341.438 154.96 342.127C154.495 342.815 153.837 343.351 153.068 343.665C152.299 343.98 151.454 344.06 150.64 343.895C149.826 343.73 149.079 343.328 148.493 342.739C147.907 342.15 147.509 341.401 147.349 340.585C147.188 339.77 147.273 338.926 147.592 338.159C147.911 337.392 148.45 336.737 149.141 336.275C149.832 335.814 150.644 335.568 151.475 335.568C152.029 335.568 152.578 335.678 153.089 335.891C153.601 336.104 154.066 336.415 154.457 336.808C154.847 337.201 155.157 337.668 155.367 338.181C155.576 338.693 155.683 339.243 155.68 339.797Z" fill="#CCD0FF"/>
<path d="M150.111 344.283H152.82C154.679 344.283 156.463 345.022 157.777 346.336C159.092 347.65 159.829 349.433 159.829 351.292V356.455H143.102V351.292C143.102 349.433 143.84 347.65 145.154 346.336C146.469 345.022 148.252 344.283 150.111 344.283Z" fill="#CCD0FF"/>
<path d="M303.807 329.957H184.621V336.827H303.807V329.957Z" fill="white"/>
<path d="M303.807 343.215H184.621V350.414H303.807V343.215Z" fill="white"/>
<path d="M303.807 356.801H184.621V364H303.807V356.801Z" fill="white"/>
<path d="M320.917 240.539H120.473V292.233H320.917V240.539Z" fill="#AFB6FF"/>
<path d="M169.112 266.316C169.112 269.806 168.077 273.219 166.137 276.121C164.198 279.024 161.442 281.286 158.216 282.622C154.991 283.958 151.443 284.307 148.019 283.626C144.595 282.945 141.45 281.264 138.982 278.796C136.514 276.328 134.832 273.183 134.151 269.759C133.47 266.335 133.82 262.787 135.156 259.561C136.492 256.336 138.754 253.58 141.657 251.64C144.559 249.701 147.971 248.666 151.462 248.666C156.143 248.666 160.633 250.525 163.942 253.835C167.252 257.145 169.112 261.635 169.112 266.316Z" fill="white"/>
<path d="M155.68 259.797C155.675 260.628 155.425 261.438 154.96 262.127C154.495 262.815 153.837 263.351 153.068 263.665C152.299 263.98 151.454 264.06 150.64 263.895C149.826 263.73 149.079 263.328 148.493 262.739C147.907 262.15 147.509 261.401 147.349 260.585C147.188 259.77 147.273 258.926 147.592 258.159C147.911 257.392 148.45 256.737 149.141 256.275C149.832 255.814 150.644 255.568 151.475 255.568C152.029 255.568 152.578 255.678 153.089 255.891C153.601 256.104 154.066 256.415 154.457 256.808C154.847 257.201 155.157 257.668 155.367 258.181C155.576 258.693 155.683 259.243 155.68 259.797Z" fill="#CCD0FF"/>
<path d="M150.111 264.283H152.82C154.679 264.283 156.463 265.022 157.777 266.336C159.092 267.65 159.829 269.433 159.829 271.292V276.455H143.102V271.292C143.102 269.433 143.84 267.65 145.154 266.336C146.469 265.022 148.252 264.283 150.111 264.283Z" fill="#CCD0FF"/>
<path d="M303.807 249.957H184.621V256.827H303.807V249.957Z" fill="white"/>
<path d="M303.807 263.215H184.621V270.414H303.807V263.215Z" fill="white"/>
<path d="M303.807 276.801H184.621V284H303.807V276.801Z" fill="white"/>
<path d="M134.231 357.536H40.367V203.772H121.93V131.036" stroke="#B8BDFF" stroke-width="2" stroke-dasharray="10 10"/>
<path d="M302.169 123.577H374.77H431.717V37.5849L520.447 36.2529V101.694L750.899 99.3099L752.136 208.727H845.493V263.638H781.427V450.471H729.738" stroke="#B8BDFF" stroke-width="2" stroke-dasharray="10 10"/>
<path d="M490.876 131.034H558.823C563.616 131.034 567.504 127.146 567.504 122.353V84.6919C567.504 79.899 563.616 76.012 558.823 76.012H490.876C486.083 76.012 482.195 79.899 482.195 84.6919V122.353C482.21 127.161 486.083 131.034 490.876 131.034Z" fill="#7B85FC"/>
<path d="M502.645 105.719V102.484L515.347 97.2749V101.593L508.936 104.101L515.347 106.668V110.912L502.645 105.719Z" fill="white"/>
<path d="M527.718 94.1289H531.933L521.308 116.877H517.094L527.718 94.1289Z" fill="white"/>
<path d="M534.367 110.899V106.61L540.778 104.102L534.367 101.535V97.262L547.069 102.47V105.705L534.367 110.899Z" fill="white"/>
<path d="M293.497 117.119H292.374C294.335 109.078 293.742 100.624 290.675 92.9358C287.609 85.2478 282.223 78.7068 275.266 74.2218C268.309 69.7378 260.127 67.5328 251.859 67.9148C243.591 68.2968 235.647 71.2458 229.133 76.3528C225.589 68.8358 219.783 62.6148 212.527 58.5628C205.271 54.5108 196.929 52.8298 188.67 53.7558C180.411 54.6818 172.649 58.1688 166.47 63.7268C160.292 69.2848 156.007 76.6368 154.216 84.7518C148.634 82.7998 142.688 82.1138 136.808 82.7458C130.928 83.3768 125.263 85.3098 120.223 88.4028C115.183 91.4958 110.895 95.6718 107.669 100.628C104.443 105.584 102.361 111.196 101.574 117.057H101.221C95.842 117.052 90.558 118.474 85.907 121.176C81.256 123.878 77.406 127.766 74.746 132.441C74.428 132.996 74.261 133.624 74.262 134.264C74.263 134.904 74.433 135.532 74.754 136.086C75.075 136.639 75.536 137.098 76.091 137.417C76.646 137.736 77.275 137.903 77.915 137.902H316.803C317.443 137.903 318.071 137.736 318.626 137.417C319.181 137.098 319.642 136.639 319.963 136.086C320.284 135.532 320.454 134.904 320.456 134.264C320.457 133.624 320.29 132.996 319.972 132.441C317.304 127.777 313.45 123.902 308.8 121.211C304.149 118.52 298.87 117.108 293.497 117.119Z" fill="#F2F3FF"/>
<path d="M905.758 161.175H904.93C906.376 155.246 905.938 149.014 903.678 143.345C901.417 137.676 897.445 132.853 892.316 129.546C887.186 126.239 881.154 124.614 875.057 124.896C868.961 125.177 863.104 127.352 858.301 131.117C855.688 125.574 851.407 120.988 846.057 118C840.707 115.012 834.556 113.773 828.467 114.456C822.377 115.139 816.653 117.71 812.097 121.808C807.542 125.906 804.383 131.327 803.063 137.311C798.947 135.871 794.563 135.366 790.227 135.832C785.892 136.297 781.714 137.722 777.998 140.002C774.282 142.283 771.121 145.362 768.742 149.016C766.364 152.671 764.828 156.809 764.248 161.13H763.988C760.022 161.127 756.125 162.174 752.696 164.167C749.267 166.159 746.428 169.025 744.467 172.473C744.232 172.882 744.109 173.345 744.11 173.817C744.111 174.289 744.236 174.752 744.472 175.16C744.709 175.568 745.05 175.907 745.459 176.142C745.868 176.377 746.331 176.5 746.803 176.499H922.941C923.413 176.5 923.876 176.377 924.285 176.142C924.695 175.907 925.035 175.568 925.272 175.16C925.509 174.752 925.633 174.289 925.634 173.817C925.635 173.345 925.512 172.882 925.277 172.473C923.311 169.034 920.469 166.177 917.04 164.193C913.611 162.208 909.719 161.167 905.758 161.175Z" fill="#F2F3FF"/>
<path d="M760.044 216.014C781.906 194.152 781.906 158.707 760.044 136.846C738.183 114.984 702.738 114.984 680.877 136.846C659.015 158.707 659.015 194.152 680.877 216.014C702.738 237.875 738.183 237.875 760.044 216.014Z" fill="#7B85FC"/>
<path d="M719.967 187.337C716.501 183.86 713.03 180.389 709.553 176.923C708.983 176.354 708.1 176.367 707.568 176.914C707.035 177.462 707.022 178.301 707.6 178.856C707.894 179.138 707.835 179.269 707.58 179.524C704.677 182.409 701.784 185.307 698.892 188.203C698.162 188.933 697.576 189.806 697.229 190.781C696.893 191.727 696.804 192.73 696.809 193.728C696.81 193.844 696.811 193.961 696.831 194.075C696.844 194.156 696.867 194.235 696.889 194.315C697.039 194.856 697.167 195.399 697.394 195.911C697.608 196.396 697.875 196.857 698.185 197.286C698.689 197.983 699.329 198.573 700.064 199.019C700.841 199.489 701.697 199.782 702.581 199.974C703.097 200.086 703.639 200.063 704.199 200.057C704.295 200.055 704.392 200.054 704.488 200.044C704.589 200.033 704.689 200.014 704.789 199.993C705.562 199.834 706.295 199.632 706.995 199.255C707.327 199.077 707.643 198.87 707.943 198.641C708.099 198.522 708.658 197.874 708.815 197.874C711.658 195.015 714.517 192.171 717.36 189.312C717.608 189.064 717.738 188.982 718.026 189.283C718.583 189.864 719.42 189.853 719.968 189.323C720.519 188.793 720.536 187.909 719.967 187.337ZM710.919 187.882C710.841 188.011 710.727 188.122 710.62 188.23C708.361 190.491 706.098 192.748 703.841 195.012C703.447 195.407 703 195.638 702.437 195.516C701.406 195.292 701 194.094 701.67 193.271C701.794 193.116 701.945 192.982 702.086 192.84C704.27 190.656 706.456 188.473 708.637 186.286C708.952 185.971 709.294 185.733 709.762 185.74C710.295 185.748 710.708 185.968 710.97 186.441C711.241 186.929 711.205 187.415 710.919 187.882Z" fill="white"/>
<path d="M735.051 200.07C734.283 199.837 733.486 199.711 732.741 199.378C729.204 197.792 727.272 193.932 728.171 190.169C728.242 189.872 728.187 189.695 727.976 189.487C726.108 187.635 724.255 185.767 722.387 183.916C722.16 183.69 722.108 183.576 722.371 183.318C724.051 181.669 725.713 180.003 727.366 178.327C727.598 178.091 727.709 178.111 727.931 178.335C729.77 180.194 731.627 182.035 733.467 183.893C733.709 184.138 733.912 184.204 734.265 184.126C739.848 182.872 744.888 187.62 744 193.28C743.816 194.462 742.597 194.938 741.674 194.175C740.762 193.421 739.864 192.649 738.971 191.873C738.766 191.694 738.642 191.646 738.421 191.875C737.6 192.729 736.762 193.566 735.908 194.387C735.682 194.605 735.72 194.729 735.9 194.936C736.636 195.783 737.349 196.651 738.089 197.495C738.508 197.971 738.713 198.481 738.468 199.098C738.222 199.716 737.717 199.958 737.085 199.987C737.013 199.991 736.929 199.972 736.898 200.071C736.283 200.07 735.667 200.07 735.051 200.07Z" fill="white"/>
<path d="M696.815 159.806C696.967 159.738 696.902 159.591 696.927 159.482C697.187 158.356 698.352 157.945 699.245 158.683C700.145 159.428 701.035 160.186 701.914 160.954C702.148 161.159 702.281 161.216 702.534 160.951C703.327 160.114 704.144 159.297 704.98 158.504C705.244 158.254 705.194 158.12 704.988 157.885C704.238 157.029 703.514 156.151 702.769 155.291C702.373 154.834 702.222 154.335 702.449 153.759C702.678 153.178 703.147 152.944 703.74 152.872C708.001 152.36 711.742 154.889 712.737 158.967C713.041 160.213 713.049 161.465 712.736 162.71C712.666 162.991 712.731 163.159 712.927 163.353C714.805 165.217 716.669 167.095 718.549 168.957C718.771 169.176 718.799 169.287 718.56 169.523C716.873 171.187 715.199 172.862 713.535 174.548C713.311 174.775 713.204 174.735 713.005 174.534C711.14 172.657 709.263 170.793 707.398 168.915C707.192 168.705 707.015 168.645 706.718 168.715C702.137 169.799 697.613 166.732 696.907 162.077C696.893 161.991 696.925 161.888 696.815 161.839C696.815 161.777 696.815 161.715 696.815 161.654C696.891 161.469 696.891 161.284 696.815 161.1C696.815 160.668 696.815 160.237 696.815 159.806Z" fill="white"/>
<path d="M739.581 152.789C739.987 152.793 740.324 152.958 740.608 153.24C741.62 154.251 742.638 155.257 743.64 156.277C744.196 156.843 744.258 157.446 743.834 158.118C742.498 160.235 741.148 162.343 739.808 164.457C739.562 164.845 739.214 165.066 738.77 165.156C738.033 165.305 737.299 165.473 736.557 165.592C736.23 165.645 735.996 165.785 735.77 166.012C730.357 171.433 724.936 176.847 719.529 182.274C719.247 182.557 719.113 182.573 718.826 182.279C717.43 180.847 716.012 179.437 714.587 178.034C714.338 177.789 714.316 177.663 714.579 177.4C720.017 171.981 725.44 166.55 730.873 161.126C731.099 160.9 731.244 160.668 731.295 160.341C731.412 159.614 731.588 158.896 731.724 158.172C731.814 157.691 732.045 157.324 732.463 157.059C734.551 155.737 736.635 154.408 738.721 153.081C738.985 152.914 739.259 152.785 739.581 152.789Z" fill="white"/>
<path d="M837.45 456.353H837.036C837.759 453.389 837.54 450.272 836.41 447.438C835.28 444.604 833.294 442.192 830.729 440.539C828.164 438.886 825.148 438.073 822.1 438.214C819.052 438.354 816.123 439.442 813.722 441.324C812.415 438.553 810.275 436.26 807.6 434.766C804.925 433.272 801.849 432.652 798.805 432.994C795.76 433.335 792.898 434.62 790.621 436.67C788.343 438.719 786.763 441.429 786.103 444.421C784.045 443.701 781.853 443.449 779.685 443.681C777.518 443.914 775.429 444.626 773.571 445.767C771.713 446.907 770.132 448.447 768.943 450.274C767.754 452.101 766.986 454.17 766.696 456.33H766.566C764.583 456.329 762.635 456.853 760.92 457.849C759.206 458.845 757.786 460.278 756.805 462.002C756.688 462.206 756.626 462.438 756.627 462.674C756.628 462.91 756.69 463.141 756.809 463.345C756.927 463.549 757.097 463.719 757.301 463.836C757.506 463.954 757.738 464.015 757.974 464.015H846.042C846.278 464.015 846.51 463.954 846.714 463.836C846.919 463.719 847.089 463.549 847.207 463.345C847.326 463.141 847.388 462.91 847.389 462.674C847.389 462.438 847.328 462.206 847.21 462.002C846.227 460.282 844.806 458.854 843.092 457.862C841.377 456.87 839.431 456.349 837.45 456.353Z" fill="#F2F3FF"/>
<path d="M697.969 294.029H872.599V396.695H697.969V294.029Z" fill="#AFB6FF"/>
<path d="M855.433 306.9H710.105V314.1H855.433V306.9Z" fill="white"/>
<path d="M811.703 320.59H710.105V327.79H811.703V320.59Z" fill="white"/>
<path d="M834.441 334.281H710.105V341.481H834.441V334.281Z" fill="white"/>
<path d="M855.433 347.706H710.105V354.906H855.433V347.706Z" fill="white"/>
<path d="M844.217 361.293H710.105V368.493H844.217V361.293Z" fill="white"/>
<path d="M829.291 374.878H710.105V382.078H829.291V374.878Z" fill="white"/>
<path d="M197.357 150.809L170.451 104.181L143.531 150.809H161.467V209.019H179.421V150.809H197.357Z" fill="#7B85FC"/>
<path d="M198.602 162.392L225.522 209.019L252.428 162.392H234.491V104.182H216.539V162.392H198.602Z" fill="#9BA3FF"/>
</g>
</g>
<defs>
<clipPath id="clip0_7_77">
<rect width="948" height="548" fill="white"/>
</clipPath>
</defs>
</svg>
